HIERARCHY
ROOT Hips
{
  OFFSET 0 0 0
  CHANNELS 6 Xposition Yposition Zposition Zrotation Xrotation Yrotation
  JOINT Spine
  {
    OFFSET 0 10 0
    CHANNELS 3 Zrotation Xrotation Yrotation
    JOINT Neck
    {
      OFFSET 0 30 0
      CHANNELS 3 Zrotation Xrotation Yrotation
      JOINT Head
      {
        OFFSET 0 8 0
        CHANNELS 3 Zrotation Xrotation Yrotation
        End Site
        {
          OFFSET 0 10 0
        }
      }
    }
    JOINT LeftArm
    {
      OFFSET 15 30 0
      CHANNELS 3 Zrotation Xrotation Yrotation
      JOINT LeftForeArm
      {
        OFFSET 25 0 0
        CHANNELS 3 Zrotation Xrotation Yrotation
        JOINT LeftHand
        {
          OFFSET 25 0 0
          CHANNELS 3 Zrotation Xrotation Yrotation
          End Site
          {
            OFFSET 10 0 0
          }
        }
      }
    }
    JOINT RightArm
    {
      OFFSET -15 30 0
      CHANNELS 3 Zrotation Xrotation Yrotation
      JOINT RightForeArm
      {
        OFFSET -25 0 0
        CHANNELS 3 Zrotation Xrotation Yrotation
        JOINT RightHand
        {
          OFFSET -25 0 0
          CHANNELS 3 Zrotation Xrotation Yrotation
          End Site
          {
            OFFSET -10 0 0
          }
        }
      }
    }
  }
  JOINT LeftUpLeg
  {
    OFFSET 10 -10 0
    CHANNELS 3 Zrotation Xrotation Yrotation
    JOINT LeftLeg
    {
      OFFSET 0 -35 0
      CHANNELS 3 Zrotation Xrotation Yrotation
      JOINT LeftToe
      {
        OFFSET 0 -40 0
        CHANNELS 3 Zrotation Xrotation Yrotation
        JOINT LeftToeEnd
        {
          OFFSET 0 0 0
          CHANNELS 3 Zrotation Xrotation Yrotation
          End Site
          {
            OFFSET 0 0 15
          }
        }
      }
    }
  }
  JOINT RightUpLeg
  {
    OFFSET -10 -10 0
    CHANNELS 3 Zrotation Xrotation Yrotation
    JOINT RightLeg
    {
      OFFSET 0 -35 0
      CHANNELS 3 Zrotation Xrotation Yrotation
      JOINT RightToe
      {
        OFFSET 0 -40 0
        CHANNELS 3 Zrotation Xrotation Yrotation
        JOINT RightToeEnd
        {
          OFFSET 0 0 0
          CHANNELS 3 Zrotation Xrotation Yrotation
          End Site
          {
            OFFSET 0 0 15
          }
        }
      }
    }
  }
}
MOTION
Frames:	17
Frame Time:	0.0333333
-0.623345 83.5931 -13.1047 -7.1186 9.11494 42.9243 6.65451 22.1431 11.4463 13.5564 -17.6645 20.6762 -27.6747 5.20344 28.3859 -79.7345 1.46705 11.6993 24.3791 -12.3271 -55.2346 -0.206608 -15.1277 0.951974 70.2011 22.8118 12.5008 -25.9837 -11.983 59.5367 0.321351 -1.52567 -1.28468 1.43757 -38.3233 -7.29815 -0.473875 50.1708 0.609912 -3.66172 -17.208 -22.478 -7.95139e-016 -7.95139e-016 6.36111e-015 -9.11818 -24.0636 -31.9622 -0.364266 53.7832 -1.16088 -2.36983 -25.225 -20.1968 2.5842e-015 0 3.97569e-015 
-0.353452 90.7996 -10.7726 -6.05786 9.02729 54.5856 6.04601 19.2115 11.3552 13.288 -18.1146 20.2984 -28.9449 9.59222 29.5963 -76.9048 -2.75805 11.3783 24.5673 -12.9551 -55.9276 -0.229991 -16.8394 0.919535 72.5218 19.1821 9.36574 -24.8547 -11.2975 57.464 0.246066 -0.74337 -1.3219 1.71241 -29.5198 -4.30414 -0.624828 34.517 0.2344 0.831572 -3.82377 -25.4367 -0 -1.59028e-015 -0 -7.48455 -18.0985 -25.4309 0.154614 43.8561 -1.42276 3.7495 -9.77076 -21.0803 7.95139e-016 -3.18055e-015 6.36111e-015 
0.210323 96.9984 -9.19498 -5.10794 12.3036 68.322 6.21803 15.8947 9.97762 12.831 -17.9585 19.1999 -29.7207 14.0381 30.5 -73.3318 -4.41399 11.665 24.8185 -13.5704 -56.7605 -0.257942 -18.6063 0.856804 73.722 15.8612 5.0196 -24.3314 -11.0194 56.4168 0.130543 -4.47485 -1.34539 2.71926 -24.1068 -0.492209 -0.754728 30.3133 0.22918 -0.380378 -5.06616 -19.7565 0 0 -3.18055e-015 -5.0913 -16.028 -16.3876 0.178122 40.5481 -1.15857 3.95815 -6.38821 -17.9324 -1.59028e-015 3.18055e-015 3.18055e-015 
0.694374 102.248 -7.97036 -5.45042 7.39653 80.6943 6.39937 13.2123 7.73965 12.4158 -17.883 17.677 -30.0628 18.0698 31.0246 -69.0693 -4.96076 11.0094 24.9361 -13.9747 -57.1975 -0.283009 -19.9347 0.784704 74.5336 12.0558 0.242038 -24.0431 -10.9374 55.8236 0.0204689 -8.58663 -1.35086 3.87879 -20.6197 2.34906 -0.833826 31.1723 0.290239 -2.04802 -10.1128 -11.7779 1.59028e-015 0 -0 -2.99739 -15.5223 -9.05073 0.146073 40.4493 -0.832957 2.4845 -7.14213 -14.1373 -4.77083e-015 -7.95139e-016 9.54166e-015 
0.57089 106.001 -6.88896 -4.00295 -1.00775 94.3539 6.70156 12.7064 4.41357 12.4659 -18.7898 15.9439 -30.0688 20.9803 30.8136 -63.7922 -4.85039 7.71921 24.7539 -13.9019 -56.6744 -0.286138 -19.7595 0.721727 75.1326 7.54504 -4.51236 -24.1694 -11.2217 56.2258 0.0191484 -9.22537 -1.26481 5.56776 -18.9715 1.13718 -0.894101 34.2556 0.281461 -2.39613 -10.9452 -7.40403 9.93923e-017 -1.3418e-015 2.38542e-015 -2.44712 -15.3436 -10.6355 0.233539 42.0784 -0.902413 1.93438 -8.45399 -13.5899 1.59028e-015 -4.77083e-015 9.54166e-015 
0.353411 108.644 -5.9743 -3.0154 5.117 109.759 6.777 12.7425 1.38518 12.3239 -19.6466 14.0633 -29.2128 23.3504 29.761 -58.6304 -4.62953 3.88742 24.4791 -13.6611 -55.8529 -0.286107 -19.0317 0.663516 75.3327 2.96517 -9.30284 -24.1428 -11.3951 56.31 0.0125169 -8.94812 -1.17204 7.5545 -18.2094 -0.561064 -0.921738 38.2685 0.258761 -2.57583 -10.3475 -3.68091 -1.59028e-015 -1.59028e-015 6.36111e-015 -2.70297 -15.6652 -14.0325 0.320052 44.1011 -1.03633 1.7365 -9.60022 -13.3843 -7.95139e-016 7.95139e-016 4.77083e-015 
0.482172 110.416 -5.13863 -3.12868 7.94188 120.993 5.8207 12.0707 0.5134 11.5072 -19.5202 12.207 -26.8018 25.4715 27.4851 -54.9608 -5.36061 0.978859 24.2734 -13.5002 -55.2155 -0.305361 -18.621 0.60762 75.4897 -1.23275 -14.3486 -23.3129 -10.87 54.7754 -0.0967305 -9.25482 -1.14523 9.20596 -17.3192 0.171237 -0.913931 40.5951 0.232249 -2.78683 -7.99554 1.00981 -2.38542e-015 -3.18055e-015 6.36111e-015 -3.84998 -16.3271 -13.7239 0.287548 44.3024 -0.987943 2.19476 -7.87327 -11.4015 7.95139e-016 -5.96354e-016 3.97569e-015 
0.649281 111.212 -4.50604 -2.17012 5.80091 131.231 4.66535 11.2268 0.369157 10.3612 -18.9322 10.3761 -23.5668 27.303 24.6397 -52.2501 -6.11461 -0.850836 24.1235 -13.3885 -54.7465 -0.327421 -17.7068 0.563259 75.0354 -4.70452 -18.818 -22.0102 -9.94482 52.1323 -0.251936 -9.46376 -1.16027 10.4745 -16.4181 1.59296 -0.877925 42.3609 0.200404 -3.25672 -5.43558 4.77538 3.97569e-016 1.19271e-015 -9.54166e-015 -5.45809 -16.6278 -12.3715 0.244935 43.8425 -0.914978 2.69967 -5.40437 -9.21892 3.97569e-016 1.39149e-015 -0 
0.677081 110.989 -4.22158 -2.14353 6.41726 140.391 3.82025 10.3268 0.0510842 8.99064 -18.0667 8.63552 -20.095 28.9435 21.9491 -50.3168 -6.26219 -0.789804 24.0981 -13.4043 -54.6466 -0.34096 -15.183 0.545361 73.7035 -7.02795 -21.5655 -20.1764 -8.57491 48.0595 -0.440345 -9.47567 -1.2395 10.9724 -15.166 3.04126 -0.823444 43.7476 0.171873 -3.46778 -4.59733 6.33386 -7.95139e-016 -3.18055e-015 6.36111e-015 -7.56308 -15.6115 -10.8589 0.284221 43.1873 -0.918806 2.95487 -4.19045 -7.40826 3.18055e-015 7.95139e-016 3.18055e-015 
0.615094 109.793 -4.13462 -2.31781 7.37141 148.797 3.37486 9.29002 -0.149954 7.48883 -17.0511 6.92588 -16.5019 30.285 19.0656 -48.9947 -5.96297 0.701404 24.1238 -13.4878 -54.7473 -0.351512 -12.7757 0.537013 72.1824 -8.61796 -23.376 -18.1114 -6.94481 43.7801 -0.625295 -9.04309 -1.31584 11.2838 -13.9283 4.26683 -0.741935 44.9702 0.128867 -3.40961 -4.11042 5.80343 7.95139e-016 1.59028e-015 3.18055e-015 -9.24361 -13.7437 -9.11047 0.350281 42.2049 -0.932471 3.29335 -2.18629 -6.63698 1.76556e-031 -1.59028e-015 6.36111e-015 
0.453797 107.684 -4.19589 -1.87725 7.85019 156.836 3.91961 7.89648 -0.270198 6.00151 -15.9427 5.15308 -13.4191 31.2863 15.9132 -48.2079 -4.84588 3.68547 24.1765 -13.6302 -55.0282 -0.35701 -12.374 0.524444 70.7155 -9.63596 -24.8968 -16.5573 -5.83479 40.5125 -0.757755 -7.74424 -1.31305 12.2827 -13.0278 4.84401 -0.609899 46.4712 0.039206 -3.08719 -2.80359 2.5128 3.97569e-015 0 3.18055e-015 -9.24503 -10.7611 -7.50555 0.435889 40.6239 -0.858656 4.26126 3.20967 -8.81828 4.77083e-015 0 -6.36111e-015 
0.19267 104.57 -4.24637 -1.48071 8.22414 164.282 4.46455 6.67842 -0.229774 4.37851 -15.1441 3.44468 -9.9516 31.8055 12.4525 -47.9134 -3.83184 7.36782 24.1654 -13.7348 -55.2474 -0.369348 -12.3825 0.505968 69.4968 -10.2153 -25.4548 -15.2319 -4.97154 37.6436 -0.865158 -6.00297 -1.28353 12.9668 -12.273 4.69895 -0.468628 47.7503 -0.0542124 -2.36325 -1.8959 -2.51393 -1.59028e-015 3.18055e-015 1.59028e-015 -8.55434 -7.94737 -5.5396 0.497532 39.3289 -0.895807 5.70658 8.2395 -10.9953 -3.18055e-015 6.36111e-015 3.18055e-015 
-0.152783 100.28 -4.16676 -1.53227 8.8023 170.957 4.10388 6.18418 0.160836 2.12437 -15.2184 1.78065 -4.65412 31.8053 8.42501 -47.2945 -3.33704 11.1274 23.952 -13.6648 -55.0497 -0.400692 -11.6727 0.468001 68.9391 -10.1514 -24.6605 -14.0462 -4.20061 35.1192 -0.965489 -4.47782 -1.26503 12.5272 -11.5271 3.19465 -0.340146 48.2071 -0.144162 -1.20406 -1.25251 -10.1819 -0 0 1.59028e-015 -7.14432 -6.69897 -1.78717 0.423636 38.5391 -1.281 6.64001 11.8844 -9.55132 -0 0 6.36111e-015 
-0.640161 95.1046 -3.78856 -2.18023 9.02333 177.134 3.18178 6.14434 0.537354 0.176469 -15.7635 0.44239 -0.0702232 30.8905 4.5781 -47.646 -4.4857 14.5749 23.6659 -13.5483 -54.7506 -0.442724 -10.7324 0.436127 68.4337 -10.5261 -22.3681 -12.8612 -3.52333 32.5856 -1.03393 -2.04307 -1.22287 11.2512 -10.9128 1.58839 -0.290728 48.5855 -0.132479 -0.931602 -3.76733 -15.4616 7.95139e-016 0 -1.59028e-015 -6.29921 -6.43941 0.813247 0.38746 39.9767 -1.78186 6.36501 9.13948 -7.66374 1.59028e-015 -3.18055e-015 4.77083e-015 
-1.4338 88.687 -2.8672 -3.85751 7.94693 -176.737 1.27699 6.11821 0.37389 -0.112645 -16.5454 -0.00395952 0.693768 28.3844 1.79655 -49.6486 -9.0942 17.6451 23.4451 -13.5863 -54.8444 -0.505844 -9.08863 0.433799 67.3323 -12.6539 -17.9579 -11.1926 -2.74431 29.1569 -1.03358 3.68651 -1.09085 8.52486 -9.96254 1.2799 -0.421655 48.9218 0.252613 -2.53987 -15.2554 -11.2276 1.59028e-015 0 1.59028e-015 -8.24119 -7.00529 -1.54105 0.73125 46.7355 -2.4632 3.66111 -10.6859 -8.37499 1.76556e-031 -6.36111e-015 1.59028e-015 
-2.19798 82.8026 -1.51153 -5.17447 6.90308 -171.495 -0.239156 7.17023 0.346761 -0.265869 -17.6311 -0.37251 0.613351 25.4545 -0.494343 -53.4681 -15.2516 19.1949 23.1314 -13.4338 -54.4373 -0.55294 -8.4958 0.452345 67.1613 -15.7687 -12.3414 -9.80262 -2.11978 26.4095 -1.05856 8.27473 -1.01965 5.98875 -10.3891 1.1542 -0.67947 50.7373 0.520282 -2.34159 -27.6746 -4.94372 -3.97569e-016 1.59028e-015 2.38542e-015 -10.2939 -8.63907 -4.91202 1.38751 54.9185 -3.13746 -0.886282 -31.5098 -11.5974 -7.95139e-016 0 4.77083e-015 
-2.57544 79.383 0.498072 -5.08468 7.32242 -167.886 0.44119 11.2987 1.2078 -1.93038 -19.5402 -1.60994 2.47445 22.9727 -2.8682 -62.121 -22.7358 16.3431 22.6996 -12.6434 -53.0616 -0.542227 -11.5459 0.50013 69.4672 -20.9613 -5.63579 -9.69095 -1.99099 26.0758 -1.20486 5.8398 -1.19418 5.5457 -15.1644 0.319278 -0.9829 57.3729 -0.0384738 -3.82161 -32.7505 -3.13122 1.2921e-015 -3.97569e-016 1.59028e-015 -9.69805 -12.3837 -6.15548 1.70406 62.0588 -2.89962 -4.49463 -38.1305 -15.6324 2.5842e-015 3.97569e-016 7.95139e-015 
